<?xml version="1.0" standalone="no"?>
<!DOCTYPE svg PUBLIC "-//W3C//DTD SVG 20010904//EN"
 "http://www.w3.org/TR/2001/REC-SVG-20010904/DTD/svg10.dtd">
<svg version="1.0" xmlns="http://www.w3.org/2000/svg"
 width="700.000000pt" height="700.000000pt" viewBox="0 0 700.000000 700.000000"
 preserveAspectRatio="xMidYMid meet">
<metadata>
Created by potrace 1.11, written by Peter Selinger 2001-2013
</metadata>
<g transform="translate(0.000000,700.000000) scale(0.100000,-0.100000)"
fill="#000000" stroke="none">
<path d="M1800 6060 l0 -940 -120 0 -120 0 -2 -491 -3 -491 -409 491 -409 491
-154 0 -153 0 0 -635 0 -635 125 0 125 0 2 486 3 486 405 -486 405 -486 152 0
153 0 2 -942 3 -943 2490 0 2490 0 3 2518 2 2517 -2495 0 -2495 0 0 -940z
m1330 -1125 l0 -95 -397 0 c-243 0 -412 -4 -435 -10 -154 -43 -175 -250 -33
-328 26 -15 79 -18 370 -22 l340 -5 57 -27 c278 -130 278 -536 0 -666 l-57
-27 -487 -3 -488 -3 0 95 0 95 473 3 472 3 33 23 c61 44 89 137 61 209 -11 31
-53 78 -84 96 -14 8 -128 14 -360 17 l-340 5 -65 31 c-153 73 -234 226 -208
392 24 150 148 277 294 302 27 4 230 8 452 9 l402 1 0 -95z m2800 1 l0 -95
-418 -3 -418 -3 -41 -27 c-46 -30 -83 -96 -83 -148 0 -56 36 -117 88 -148 l47
-27 340 -5 340 -5 56 -28 c70 -34 142 -109 177 -185 22 -48 27 -71 27 -147 0
-77 -4 -98 -27 -147 -35 -76 -107 -151 -177 -185 l-56 -28 -492 -3 -493 -3 0
96 0 95 468 0 c442 0 469 1 498 19 126 77 120 253 -10 312 -37 17 -71 19 -346
19 -381 0 -419 8 -520 110 -54 53 -77 93 -96 165 -44 162 34 341 181 418 78
41 131 45 553 46 l402 1 0 -94z m-2193 -188 c125 -144 233 -263 238 -265 6 -2
114 116 240 262 l230 264 148 1 149 0 -65 -72 c-36 -40 -182 -203 -326 -363
l-260 -290 -1 -267 0 -268 -110 0 -110 0 0 265 0 264 -312 348 c-171 191 -318
356 -326 366 -14 16 -7 17 131 17 l146 0 228 -262z"/>
<path d="M0 4375 l0 -665 110 0 110 0 0 665 0 665 -110 0 -110 0 0 -665z"/>
<path d="M1840 1600 l0 -130 140 0 140 0 0 130 0 130 -140 0 -140 0 0 -130z"/>
<path d="M3034 1310 c-253 -27 -486 -182 -581 -387 -116 -252 -19 -544 237
-708 85 -55 140 -79 247 -106 81 -21 112 -22 388 -23 l300 -1 3 132 3 132
-318 3 -318 3 -67 32 c-77 36 -142 98 -178 169 -21 42 -25 62 -25 144 0 81 4
103 25 145 33 67 102 135 175 171 l60 29 323 3 323 3 -3 132 -3 132 -260 1
c-143 1 -292 -2 -331 -6z"/>
<path d="M5510 1308 c-100 -10 -160 -33 -235 -92 -61 -48 -101 -96 -134 -161
-55 -107 -61 -159 -61 -582 l0 -383 140 0 140 0 0 398 c0 362 2 400 19 437 71
157 290 168 378 18 l28 -48 3 -402 3 -403 134 0 135 0 0 378 c0 423 4 452 64
514 46 47 94 68 156 68 81 0 150 -45 193 -125 21 -39 22 -52 25 -437 l3 -398
135 0 135 0 -3 423 c-4 402 -5 425 -25 479 -57 152 -168 260 -312 304 -60 18
-222 19 -282 0 -62 -19 -136 -57 -183 -95 l-39 -31 -34 30 c-93 82 -237 123
-383 108z"/>
<path d="M1847 1303 c-4 -3 -7 -278 -7 -610 l0 -603 140 0 140 0 0 610 0 610
-133 0 c-74 0 -137 -3 -140 -7z"/>
<path d="M4023 1291 c-227 -62 -398 -218 -469 -431 -28 -84 -26 -254 4 -342
60 -174 204 -321 382 -391 124 -49 296 -61 435 -32 193 41 369 177 455 352
159 323 -28 717 -395 834 -101 32 -311 37 -412 10z m372 -270 c75 -36 136 -98
172 -176 24 -52 28 -72 28 -150 0 -82 -3 -97 -33 -157 -40 -82 -111 -149 -190
-178 -78 -30 -262 -26 -334 7 -54 24 -131 92 -163 143 -102 164 -57 372 105
482 72 48 103 56 240 57 107 1 119 -1 175 -28z"/>
</g>
</svg>
